# WaveFront *.obj file (generated by Autodesk ATF)

mtllib e5c41da5-f991-4ef5-8430-010703a55e77.mtl

g Body16

v -45.098076 19.150635 94.000000
v -52.767949 5.866025 94.000000
v -51.035898 4.866025 94.000000
v -43.366025 18.150635 94.000000
v -42.571432 19.186169 94.000000
v -41.535898 19.980762 94.000000
v -40.329994 20.480264 94.000000
v -39.035898 20.650635 94.000000
v -23.696152 20.650635 94.000000
v -23.696152 22.650635 94.000000
v -39.035898 22.650635 94.000000
v -40.329994 22.821006 94.000000
v -41.535898 23.320508 94.000000
v -42.571432 24.115101 94.000000
v -43.366025 25.150635 94.000000
v -51.035898 38.435245 94.000000
v -52.767949 37.435245 94.000000
v -45.098076 24.150635 94.000000
v -44.598574 22.944730 94.000000
v -44.428203 21.650635 94.000000
v -44.598574 20.356540 94.000000
v -39.035898 22.650635 45.000000
v -39.035898 22.650635 0.000000
v -40.329994 22.821006 0.000000
v -41.535898 23.320508 0.000000
v -42.571432 24.115101 0.000000
v -43.366025 25.150635 0.000000
v -43.366025 25.150635 45.000000
v -23.696152 22.650635 45.000000
v -23.696152 20.650635 45.000000
v -39.035898 20.650635 45.000000
v -43.366025 18.150635 45.000000
v -43.366025 18.150635 0.000000
v -42.571432 19.186169 0.000000
v -41.535898 19.980762 0.000000
v -40.329994 20.480264 0.000000
v -39.035898 20.650635 0.000000
v -51.035898 4.866025 45.000000
v -53.267949 38.301270 44.000000
v -52.767949 37.435245 45.000000
v -51.035898 38.435245 45.000000
v -51.535898 39.301270 44.000000
v -53.267949 38.301270 0.000000
v -52.767949 37.435245 0.000000
v -51.535898 39.301270 0.000000
v -51.035898 38.435245 0.000000
v -51.535898 4.000000 44.000000
v -52.767949 5.866025 45.000000
v -53.267949 5.000000 44.000000
v -51.535898 4.000000 0.000000
v -51.035898 4.866025 0.000000
v -53.267949 5.000000 0.000000
v -22.696152 22.650635 44.000000
v -22.696152 20.650635 44.000000
v -22.696152 22.650635 0.000000
v -23.696152 22.650635 0.000000
v -22.696152 20.650635 0.000000
v -52.767949 5.866025 0.000000
v -23.696152 20.650635 0.000000
v -45.098076 24.150635 45.000000
v -45.098076 19.150635 45.000000
v -45.098076 19.150635 0.000000
v -44.598574 20.356540 0.000000
v -44.428203 21.650635 0.000000
v -44.598574 22.944730 0.000000
v -45.098076 24.150635 0.000000
vt 1.453590 1.578461 0.000000
vt 1.280385 1.678461 0.000000
vt 0.686603 0.250000 0.000000
vt 0.513397 0.350000 0.000000
vt 0.636652 0.129410 0.000000
vt 0.433938 0.246447 0.000000
vt 0.619615 0.000000 0.000000
vt 0.330385 0.166987 0.000000
vt 0.330385 -0.166987 0.000000
vt 0.209794 0.117037 0.000000
vt 0.209794 -0.117037 0.000000
vt 0.080385 0.100000 0.000000
vt 0.080385 -0.100000 0.000000
vt -1.453590 0.100000 0.000000
vt -1.453590 -0.100000 0.000000
vt 0.433938 -0.246447 0.000000
vt 0.636652 -0.129410 0.000000
vt 0.513397 -0.350000 0.000000
vt 0.686603 -0.250000 0.000000
vt 1.280385 -1.678461 0.000000
vt 1.453590 -1.578461 0.000000
vt 9.400000 0.000000 0.000000
vt 9.400000 0.130900 0.000000
vt 4.500000 0.000000 0.000000
vt 0.000000 0.130900 0.000000
vt 0.000000 0.000000 0.000000
vt -0.000000 0.261799 0.000000
vt 9.400000 0.261799 0.000000
vt 0.000000 0.392699 0.000000
vt 9.400000 0.392699 0.000000
vt 4.500000 0.523599 0.000000
vt 9.400000 0.523599 0.000000
vt -0.000000 0.523599 0.000000
vt 1.533975 4.900000 0.000000
vt 0.000000 4.900000 0.000000
vt 1.533975 0.000000 0.000000
vt 0.000000 0.000000 0.000000
vt 0.200000 4.900000 0.000000
vt 0.000000 4.900000 0.000000
vt 0.200000 0.000000 0.000000
vt 0.000000 0.000000 0.000000
vt 1.533975 4.900000 0.000000
vt 0.000000 4.900000 0.000000
vt 1.533975 0.000000 0.000000
vt 0.000000 0.000000 0.000000
vt 9.400000 0.000000 0.000000
vt 9.400000 0.130900 0.000000
vt 4.500000 0.000000 0.000000
vt -0.000000 0.130900 0.000000
vt 0.000000 0.000000 0.000000
vt 0.000000 0.261799 0.000000
vt 9.400000 0.261799 0.000000
vt -0.000000 0.392699 0.000000
vt 9.400000 0.392699 0.000000
vt 4.500000 0.523599 0.000000
vt 9.400000 0.523599 0.000000
vt -0.000000 0.523599 0.000000
vt 1.533975 4.900000 0.000000
vt 0.000000 4.900000 0.000000
vt 1.533975 0.000000 0.000000
vt 0.000000 0.000000 0.000000
vt -0.232687 -0.281275 0.000000
vt -0.077768 -0.154784 0.000000
vt -0.322130 -0.171731 0.000000
vt -0.167211 -0.045240 0.000000
vt 4.500000 0.000000 0.000000
vt 4.400000 0.100000 0.000000
vt 0.000000 0.000000 0.000000
vt 0.000000 0.100000 0.000000
vt 0.400000 0.000000 0.000000
vt -4.000000 0.000000 0.000000
vt 0.400000 -0.200000 0.000000
vt -4.000000 -0.200000 0.000000
vt 0.000000 0.000000 0.000000
vt 4.500000 0.000000 0.000000
vt 0.100000 0.100000 0.000000
vt 4.500000 0.100000 0.000000
vt -0.089751 -0.018006 0.000000
vt -0.000308 0.091539 0.000000
vt -0.244670 0.108485 0.000000
vt -0.155228 0.218030 0.000000
vt 4.500000 -0.000000 0.000000
vt 4.400000 0.100000 0.000000
vt 0.000000 -0.000000 0.000000
vt 0.000000 0.100000 0.000000
vt -0.400000 0.200000 0.000000
vt -0.400000 0.000000 0.000000
vt 4.000000 0.200000 0.000000
vt 4.000000 0.000000 0.000000
vt -0.070711 0.150000 0.000000
vt -0.070711 -0.050000 0.000000
vt 0.070711 0.150000 0.000000
vt 0.070711 -0.050000 0.000000
vt 4.500000 -0.000000 0.000000
vt 4.400000 0.100000 0.000000
vt 0.000000 -0.000000 0.000000
vt 0.000000 0.100000 0.000000
vt -0.400000 -0.000000 0.000000
vt 4.000000 -0.000000 0.000000
vt -0.400000 0.200000 0.000000
vt 4.000000 0.200000 0.000000
vt 0.000000 0.000000 0.000000
vt 4.500000 0.000000 0.000000
vt 0.100000 0.100000 0.000000
vt 4.500000 0.100000 0.000000
vt 0.000000 -0.000000 0.000000
vt 4.500000 -0.000000 0.000000
vt 0.100000 0.100000 0.000000
vt 4.500000 0.100000 0.000000
vt 1.533975 4.900000 0.000000
vt 0.000000 4.900000 0.000000
vt 1.533975 0.000000 0.000000
vt 0.000000 0.000000 0.000000
vt 0.200000 4.900000 0.000000
vt -0.000000 4.900000 0.000000
vt 0.200000 0.000000 0.000000
vt -0.000000 0.000000 0.000000
vt 1.533975 4.900000 0.000000
vt 0.000000 4.900000 0.000000
vt 1.533975 0.000000 0.000000
vt 0.000000 0.000000 0.000000
vt 0.200000 4.900000 0.000000
vt 0.000000 4.900000 0.000000
vt 0.200000 0.000000 0.000000
vt 0.000000 0.000000 0.000000
vt 1.533975 4.900000 0.000000
vt 0.000000 4.900000 0.000000
vt 1.533975 0.000000 0.000000
vt -0.000000 0.000000 0.000000
vt 1.533975 4.500000 0.000000
vt 0.000000 4.500000 0.000000
vt 1.533975 0.000000 0.000000
vt 0.000000 0.000000 0.000000
vt 1.533975 4.500000 0.000000
vt -0.000000 4.500000 0.000000
vt 1.533975 0.000000 0.000000
vt -0.000000 0.000000 0.000000
vt 1.533975 4.500000 0.000000
vt 0.000000 4.500000 0.000000
vt 1.533975 0.000000 0.000000
vt 0.000000 0.000000 0.000000
vt 1.557457 1.665064 0.000000
vt 1.384252 1.765064 0.000000
vt 1.507457 1.578461 0.000000
vt 1.334252 1.678461 0.000000
vt 0.740470 0.250000 0.000000
vt 0.567265 0.350000 0.000000
vt 0.690520 0.129410 0.000000
vt 0.487806 0.246447 0.000000
vt 0.673483 -0.000000 0.000000
vt 0.384252 0.166987 0.000000
vt 0.384252 -0.166987 0.000000
vt 0.263662 -0.117037 0.000000
vt 0.263662 0.117037 0.000000
vt 0.134252 -0.100000 0.000000
vt 0.134252 0.100000 0.000000
vt -1.399722 -0.100000 0.000000
vt -1.399722 0.100000 0.000000
vt -1.499722 -0.100000 0.000000
vt -1.499722 0.100000 0.000000
vt 0.487806 -0.246447 0.000000
vt 0.690520 -0.129410 0.000000
vt 0.567265 -0.350000 0.000000
vt 0.740470 -0.250000 0.000000
vt 1.334252 -1.678461 0.000000
vt 1.507457 -1.578461 0.000000
vt 1.384252 -1.765064 0.000000
vt 1.557457 -1.665064 0.000000
vt 9.400000 -0.000000 0.000000
vt 9.400000 0.130900 0.000000
vt 4.500000 0.000000 0.000000
vt 0.000000 0.130900 0.000000
vt -0.000000 0.000000 0.000000
vt 0.000000 0.261799 0.000000
vt 9.400000 0.261799 0.000000
vt 0.000000 0.392699 0.000000
vt 9.400000 0.392699 0.000000
vt 4.500000 0.523599 0.000000
vt 9.400000 0.523599 0.000000
vt -0.000000 0.523599 0.000000
vt 0.100000 0.000000 0.000000
vt 1.633975 0.000000 0.000000
vt 0.100000 4.500000 0.000000
vt 1.633975 4.500000 0.000000
vt 0.100000 0.000000 0.000000
vt 1.633975 0.000000 0.000000
vt 0.100000 4.500000 0.000000
vt 1.633975 4.500000 0.000000
vt 0.100000 0.000000 0.000000
vt 1.633975 0.000000 0.000000
vt 0.100000 4.500000 0.000000
vt 1.633975 4.500000 0.000000
vn 0.000000 0.000000 0.100000
vn 0.000000 0.000000 0.100000
vn 0.000000 0.000000 0.100000
vn 0.000000 0.000000 0.100000
vn 0.000000 0.000000 0.100000
vn 0.000000 0.000000 0.100000
vn 0.000000 0.000000 0.100000
vn 0.000000 0.000000 0.100000
vn 0.000000 0.000000 0.100000
vn 0.000000 0.000000 0.100000
vn 0.000000 0.000000 0.100000
vn 0.000000 0.000000 0.100000
vn 0.000000 0.000000 0.100000
vn 0.000000 0.000000 0.100000
vn 0.000000 0.000000 0.100000
vn 0.000000 0.000000 0.100000
vn 0.000000 0.000000 0.100000
vn 0.000000 0.000000 0.100000
vn 0.000000 0.000000 0.100000
vn 0.000000 0.000000 0.100000
vn 0.000000 0.000000 0.100000
vn 0.086603 0.050000 0.000000
vn 0.070711 0.070711 0.000000
vn 0.086603 0.050000 0.000000
vn 0.070711 0.070711 0.000000
vn 0.086603 0.050000 0.000000
vn 0.050000 0.086603 0.000000
vn 0.050000 0.086603 0.000000
vn 0.025882 0.096593 0.000000
vn 0.025882 0.096593 0.000000
vn 0.000000 0.100000 0.000000
vn 0.000000 0.100000 0.000000
vn 0.000000 0.100000 0.000000
vn -0.000000 0.100000 0.000000
vn -0.000000 0.100000 0.000000
vn -0.000000 0.100000 0.000000
vn -0.000000 0.100000 0.000000
vn 0.100000 -0.000000 0.000000
vn 0.100000 -0.000000 0.000000
vn 0.100000 -0.000000 0.000000
vn 0.100000 -0.000000 0.000000
vn 0.000000 -0.100000 0.000000
vn 0.000000 -0.100000 0.000000
vn 0.000000 -0.100000 0.000000
vn 0.000000 -0.100000 0.000000
vn 0.000000 -0.100000 0.000000
vn 0.025882 -0.096593 0.000000
vn 0.000000 -0.100000 0.000000
vn 0.025882 -0.096593 0.000000
vn 0.000000 -0.100000 0.000000
vn 0.050000 -0.086603 0.000000
vn 0.050000 -0.086603 0.000000
vn 0.070711 -0.070711 0.000000
vn 0.070711 -0.070711 0.000000
vn 0.086603 -0.050000 0.000000
vn 0.086603 -0.050000 0.000000
vn 0.086603 -0.050000 0.000000
vn 0.086603 -0.050000 0.000000
vn 0.086603 -0.050000 0.000000
vn 0.086603 -0.050000 0.000000
vn 0.086603 -0.050000 0.000000
vn -0.035355 0.061237 0.070711
vn -0.035355 0.061237 0.070711
vn -0.035355 0.061237 0.070711
vn -0.035355 0.061237 0.070711
vn -0.086603 -0.050000 0.000000
vn -0.086603 -0.050000 0.000000
vn -0.086603 -0.050000 0.000000
vn -0.086603 -0.050000 0.000000
vn -0.050000 0.086603 -0.000000
vn -0.050000 0.086603 -0.000000
vn -0.050000 0.086603 -0.000000
vn -0.050000 0.086603 -0.000000
vn 0.086603 0.050000 0.000000
vn 0.086603 0.050000 0.000000
vn 0.086603 0.050000 0.000000
vn 0.086603 0.050000 0.000000
vn -0.035355 -0.061237 0.070711
vn -0.035355 -0.061237 0.070711
vn -0.035355 -0.061237 0.070711
vn -0.035355 -0.061237 0.070711
vn 0.086603 -0.050000 0.000000
vn 0.086603 -0.050000 0.000000
vn 0.086603 -0.050000 0.000000
vn 0.086603 -0.050000 0.000000
vn -0.050000 -0.086603 0.000000
vn -0.050000 -0.086603 0.000000
vn -0.050000 -0.086603 0.000000
vn -0.050000 -0.086603 0.000000
vn 0.070711 -0.000000 0.070711
vn 0.070711 -0.000000 0.070711
vn 0.070711 -0.000000 0.070711
vn 0.070711 -0.000000 0.070711
vn 0.000000 0.100000 0.000000
vn 0.000000 0.100000 0.000000
vn 0.000000 0.100000 0.000000
vn 0.000000 0.100000 0.000000
vn 0.100000 -0.000000 0.000000
vn 0.100000 -0.000000 0.000000
vn 0.100000 -0.000000 0.000000
vn 0.100000 -0.000000 0.000000
vn -0.086603 0.050000 0.000000
vn -0.086603 0.050000 0.000000
vn -0.086603 0.050000 0.000000
vn -0.086603 0.050000 0.000000
vn -0.000000 -0.100000 0.000000
vn -0.000000 -0.100000 0.000000
vn -0.000000 -0.100000 0.000000
vn -0.000000 -0.100000 0.000000
vn -0.086603 -0.050000 0.000000
vn -0.086603 -0.050000 0.000000
vn -0.086603 -0.050000 0.000000
vn -0.086603 -0.050000 0.000000
vn -0.050000 0.086603 0.000000
vn -0.050000 0.086603 0.000000
vn -0.050000 0.086603 0.000000
vn -0.050000 0.086603 0.000000
vn 0.086603 0.050000 0.000000
vn 0.086603 0.050000 0.000000
vn 0.086603 0.050000 0.000000
vn 0.086603 0.050000 0.000000
vn -0.050000 -0.086603 0.000000
vn -0.050000 -0.086603 0.000000
vn -0.050000 -0.086603 0.000000
vn -0.050000 -0.086603 0.000000
vn -0.086603 0.050000 0.000000
vn -0.086603 0.050000 0.000000
vn -0.086603 0.050000 0.000000
vn -0.086603 0.050000 0.000000
vn 0.086603 0.050000 0.000000
vn 0.086603 0.050000 0.000000
vn -0.086603 0.050000 0.000000
vn -0.086603 0.050000 0.000000
vn -0.086603 0.050000 0.000000
vn -0.086603 0.050000 0.000000
vn -0.000000 -0.100000 0.000000
vn -0.000000 -0.100000 0.000000
vn 0.000000 0.000000 -0.100000
vn 0.000000 0.000000 -0.100000
vn 0.000000 0.000000 -0.100000
vn 0.000000 0.000000 -0.100000
vn 0.000000 0.000000 -0.100000
vn 0.000000 0.000000 -0.100000
vn 0.000000 0.000000 -0.100000
vn 0.000000 0.000000 -0.100000
vn 0.000000 0.000000 -0.100000
vn 0.000000 0.000000 -0.100000
vn 0.000000 0.000000 -0.100000
vn 0.000000 0.000000 -0.100000
vn 0.000000 0.000000 -0.100000
vn 0.000000 0.000000 -0.100000
vn 0.000000 0.000000 -0.100000
vn 0.000000 0.000000 -0.100000
vn 0.000000 0.000000 -0.100000
vn 0.000000 0.000000 -0.100000
vn 0.000000 0.000000 -0.100000
vn 0.000000 0.000000 -0.100000
vn 0.000000 0.000000 -0.100000
vn 0.000000 0.000000 -0.100000
vn 0.000000 0.000000 -0.100000
vn 0.000000 0.000000 -0.100000
vn 0.000000 0.000000 -0.100000
vn 0.000000 0.000000 -0.100000
vn 0.000000 0.000000 -0.100000
vn -0.086603 0.050000 0.000000
vn -0.096593 0.025882 0.000000
vn -0.096593 0.025882 0.000000
vn -0.100000 0.000000 0.000000
vn -0.100000 0.000000 0.000000
vn -0.096593 -0.025882 0.000000
vn -0.096593 -0.025882 0.000000
vn -0.086603 -0.050000 0.000000
vn -0.086603 -0.050000 0.000000
vn -0.086603 -0.050000 0.000000
vn -0.086603 -0.050000 0.000000
vn -0.086603 -0.050000 0.000000
vn 0.000000 0.100000 0.000000
vn 0.000000 0.100000 0.000000
vn 0.086603 -0.050000 0.000000
vn 0.086603 -0.050000 0.000000
usemtl Steel_-_Satin
f 2/1/1 3/2/2 1/3/3
f 1/3/3 3/2/2 4/4/4
f 1/3/3 4/4/4 21/5/5
f 21/5/5 4/4/4 5/6/6
f 21/5/5 5/6/6 20/7/7
f 20/7/7 5/6/6 6/8/8
f 20/7/7 6/8/8 13/9/9
f 13/9/9 6/8/8 7/10/10
f 13/9/9 7/10/10 12/11/11
f 12/11/11 7/10/10 8/12/12
f 12/11/11 8/12/12 11/13/13
f 11/13/13 8/12/12 9/14/14
f 11/13/13 9/14/14 10/15/15
f 13/9/9 14/16/16 20/7/7
f 20/7/7 14/16/16 19/17/17
f 19/17/17 14/16/16 15/18/18
f 19/17/17 15/18/18 18/19/19
f 18/19/19 15/18/18 16/20/20
f 18/19/19 16/20/20 17/21/21
f 15/22/22 14/23/23 28/24/24
f 28/24/24 14/23/23 26/25/25
f 28/24/24 26/25/25 27/26/26
f 26/25/25 14/23/23 25/27/27
f 25/27/27 14/23/23 13/28/28
f 25/27/27 13/28/28 24/29/29
f 24/29/29 13/28/28 12/30/30
f 24/29/29 12/30/30 22/31/31
f 22/31/31 12/30/30 11/32/32
f 22/31/31 23/33/33 24/29/29
f 11/34/34 10/35/35 22/36/36
f 22/36/36 10/35/35 29/37/37
f 10/38/38 9/39/39 29/40/40
f 29/40/40 9/39/39 30/41/41
f 9/42/42 8/43/43 30/44/44
f 30/44/44 8/43/43 31/45/45
f 8/46/46 7/47/47 31/48/48
f 31/48/48 7/47/47 36/49/49
f 31/48/48 36/49/49 37/50/50
f 36/49/49 7/47/47 35/51/51
f 35/51/51 7/47/47 6/52/52
f 35/51/51 6/52/52 34/53/53
f 34/53/53 6/52/52 5/54/54
f 34/53/53 5/54/54 32/55/55
f 32/55/55 5/54/54 4/56/56
f 32/55/55 33/57/57 34/53/53
f 4/58/58 3/59/59 32/60/60
f 32/60/60 3/59/59 38/61/61
f 40/62/62 41/63/63 39/64/64
f 39/64/64 41/63/63 42/65/65
f 40/66/66 39/67/67 44/68/68
f 44/68/68 39/67/67 43/69/69
f 42/70/70 45/71/71 39/72/72
f 39/72/72 45/71/71 43/73/73
f 41/74/74 46/75/75 42/76/76
f 42/76/76 46/75/75 45/77/77
f 47/78/78 38/79/79 49/80/80
f 49/80/80 38/79/79 48/81/81
f 38/82/82 47/83/83 51/84/84
f 51/84/84 47/83/83 50/85/85
f 47/86/86 49/87/87 50/88/88
f 50/88/88 49/87/87 52/89/89
f 29/90/90 30/91/91 53/92/92
f 53/92/92 30/91/91 54/93/93
f 29/94/94 53/95/95 56/96/96
f 56/96/96 53/95/95 55/97/97
f 54/98/98 57/99/99 53/100/100
f 53/100/100 57/99/99 55/101/101
f 48/102/102 58/103/103 49/104/104
f 49/104/104 58/103/103 52/105/105
f 30/106/106 59/107/107 54/108/108
f 54/108/108 59/107/107 57/109/109
f 18/110/110 17/111/111 60/112/112
f 60/112/112 17/111/111 40/113/113
f 17/114/114 16/115/115 40/116/116
f 40/116/116 16/115/115 41/117/117
f 16/118/118 15/119/119 41/120/120
f 41/120/120 15/119/119 28/121/121
f 3/122/122 2/123/123 38/124/124
f 38/124/124 2/123/123 48/125/125
f 2/126/126 1/127/127 48/128/128
f 48/128/128 1/127/127 61/129/129
f 41/130/130 28/131/24 46/132/131
f 46/132/131 28/131/24 27/133/26
f 48/134/132 61/135/133 58/136/134
f 58/136/134 61/135/133 62/137/135
f 30/138/136 31/139/48 59/140/137
f 59/140/137 31/139/48 37/141/50
f 43/142/138 45/143/139 44/144/140
f 44/144/140 45/143/139 46/145/141
f 44/144/140 46/145/141 66/146/142
f 66/146/142 46/145/141 27/147/143
f 66/146/142 27/147/143 65/148/144
f 65/148/144 27/147/143 26/149/145
f 65/148/144 26/149/145 64/150/146
f 64/150/146 26/149/145 25/151/147
f 64/150/146 25/151/147 35/152/148
f 35/152/148 25/151/147 36/153/149
f 36/153/149 25/151/147 24/154/150
f 36/153/149 24/154/150 37/155/151
f 37/155/151 24/154/150 23/156/152
f 37/155/151 23/156/152 59/157/153
f 59/157/153 23/156/152 56/158/154
f 59/157/153 56/158/154 57/159/155
f 57/159/155 56/158/154 55/160/156
f 35/152/148 34/161/157 64/150/146
f 64/150/146 34/161/157 63/162/158
f 63/162/158 34/161/157 33/163/159
f 63/162/158 33/163/159 62/164/160
f 62/164/160 33/163/159 51/165/161
f 62/164/160 51/165/161 58/166/162
f 58/166/162 51/165/161 50/167/163
f 58/166/162 50/167/163 52/168/164
f 1/169/165 21/170/166 61/171/133
f 61/171/133 21/170/166 63/172/167
f 61/171/133 63/172/167 62/173/135
f 63/172/167 21/170/166 64/174/168
f 64/174/168 21/170/166 20/175/169
f 64/174/168 20/175/169 65/176/170
f 65/176/170 20/175/169 19/177/171
f 65/176/170 19/177/171 60/178/172
f 60/178/172 19/177/171 18/179/173
f 60/178/172 66/180/174 65/176/170
f 44/181/175 66/182/174 40/183/176
f 40/183/176 66/182/174 60/184/172
f 56/185/177 23/186/33 29/187/178
f 29/187/178 23/186/33 22/188/31
f 51/189/179 33/190/57 38/191/180
f 38/191/180 33/190/57 32/192/55
# 66 vertices
# 192 texture params
# 180 normals
# 128 facets

# 1 groups
